<?xml version="1.0" encoding="iso-8859-1"?>
<!-- Generator: Adobe Illustrator 19.0.0, SVG Export Plug-In . SVG Version: 6.00 Build 0)  -->
<svg version="1.1" id="Layer_1" xmlns="http://www.w3.org/2000/svg" xmlns:xlink="http://www.w3.org/1999/xlink" x="0px" y="0px"
	 viewBox="0 0 476.88 476.88" style="enable-background:new 0 0 476.88 476.88;" xml:space="preserve">
<g>
	<path d="M87.617,129.429c0-54.826,44.604-99.429,99.43-99.429s99.43,44.604,99.43,99.429c0,11.408-1.92,22.602-5.707,33.27
		l28.271,10.036c4.934-13.898,7.436-28.469,7.436-43.306C316.476,58.062,258.414,0,187.046,0S57.617,58.062,57.617,129.429
		c0,26.908,8.183,52.709,23.664,74.615c15.128,21.405,36.056,37.545,60.522,46.675l10.488-28.106
		C113.607,208.177,87.617,170.729,87.617,129.429z"/>
	<path d="M187.046,80c27.256,0,49.43,22.174,49.43,49.43c0,0.252-0.011,0.502-0.02,0.752l-0.02,0.643l29.988,0.826l0.015-0.45
		c0.02-0.589,0.037-1.178,0.037-1.771c0-43.798-35.632-79.43-79.43-79.43c-43.797,0-79.429,35.632-79.429,79.43
		c0,24.33,10.97,47,30.098,62.197l18.662-23.489c-11.922-9.472-18.76-23.581-18.76-38.708C137.617,102.174,159.791,80,187.046,80z"
		/>
	<polygon points="419.264,324.283 187.046,129.43 187.046,432.568 252.909,353.49 310.447,476.88 373.889,447.297 316.351,323.907 	
		"/>
</g>
<g>
</g>
<g>
</g>
<g>
</g>
<g>
</g>
<g>
</g>
<g>
</g>
<g>
</g>
<g>
</g>
<g>
</g>
<g>
</g>
<g>
</g>
<g>
</g>
<g>
</g>
<g>
</g>
<g>
</g>
</svg>
